<svg xmlns="http://www.w3.org/2000/svg" xmlns:xlink="http://www.w3.org/1999/xlink" width="244" height="71" viewBox="0 0 244 71"><defs><style>.a{clip-path:url(#d);}.b{fill:#f2654a;}.c,.d,.e{fill:#fef8e7;}.d{font-size:23px;}.d,.e{font-family:AlphaEcho, Alpha Echo;}.e{font-size:16px;}.f{filter:url(#a);}</style><filter id="a" x="-3" y="-19" width="246.352" height="87.865" filterUnits="userSpaceOnUse"><feOffset dx="5" dy="5" input="SourceAlpha"/><feGaussianBlur result="b"/><feFlood flood-opacity="0.161"/><feComposite operator="in" in2="b"/><feComposite in="SourceGraphic"/></filter><clipPath id="d"><rect width="244" height="71"/></clipPath></defs><g id="c" class="a"><g transform="translate(-1632.786 -50.998)"><g transform="matrix(-0.997, -0.082, 0.082, -0.997, 1865.92, 114.863)"><g class="f" transform="matrix(-1, 0.08, -0.08, -1, 237.58, 44.54)"><path class="b" d="M9.621,0H233.3l3.634,44.172L0,63.658Z" transform="matrix(-1, -0.08, 0.08, -1, 233.13, 63.86)"/></g></g><g transform="translate(1820.276 69.642)"><g transform="translate(0 0)"><path class="c" d="M-2.648,24.54a2.04,2.04,0,0,1,0-2.885L8.062,10.946-2.648.236a2.039,2.039,0,0,1,0-2.884,2.039,2.039,0,0,1,2.884,0l13.6,13.594L.236,24.54a2.039,2.039,0,0,1-2.884,0" transform="translate(3.246 3.246)"/></g><g transform="translate(11.011 0)"><path class="c" d="M-2.645,24.54a2.042,2.042,0,0,1,0-2.885L8.066,10.946-2.645.236a2.041,2.041,0,0,1,0-2.884,2.04,2.04,0,0,1,2.885,0L13.834,10.946.24,24.54a2.04,2.04,0,0,1-2.885,0" transform="translate(3.242 3.246)"/></g></g><text class="d" transform="translate(1670.573 79.448)"><tspan x="0" y="0">Meer info?</tspan></text><text class="e" transform="translate(1730.031 93.986)"><tspan x="0" y="0">Klik hier</tspan></text></g></g></svg>