<svg xmlns="http://www.w3.org/2000/svg" width="63.976" height="63.975" viewBox="0 0 63.976 63.975">
  <path id="facebook-square" d="M57.121,32H6.855A6.854,6.854,0,0,0,0,38.855V89.121a6.854,6.854,0,0,0,6.855,6.854h19.6V74.225h-9V63.988h9v-7.8c0-8.875,5.284-13.778,13.376-13.778a54.5,54.5,0,0,1,7.928.691v8.711H43.293c-4.4,0-5.772,2.73-5.772,5.531V63.99h9.822L45.772,74.225H37.521v21.75h19.6a6.854,6.854,0,0,0,6.855-6.855V38.854A6.854,6.854,0,0,0,57.121,32Z" transform="translate(0 -32)" fill="#d51761"/>
</svg>
