<svg xmlns="http://www.w3.org/2000/svg" width="477.106" height="626.211" viewBox="0 0 477.106 626.211"><defs><style>.a,.bc,.be{mix-blend-mode:multiply;isolation:isolate;}.b{fill:#fff;opacity:0;}.c{fill:#fcfcfc;opacity:0.02;}.d{fill:#f9f9f9;opacity:0.039;}.e{fill:#f6f6f6;opacity:0.059;}.f{fill:#f3f3f3;opacity:0.078;}.g{fill:#f0f0f0;opacity:0.098;}.h{fill:#ededed;opacity:0.118;}.i{fill:#eaeaea;opacity:0.137;}.j{fill:#e7e7e7;opacity:0.157;}.k{fill:#e4e4e4;opacity:0.176;}.l{fill:#e1e1e1;opacity:0.196;}.m{fill:#dedede;opacity:0.216;}.n{fill:#dbdbdb;opacity:0.235;}.o{fill:#d8d8d8;opacity:0.255;}.p{fill:#d5d5d5;opacity:0.275;}.q{fill:#d2d2d2;opacity:0.294;}.r{fill:#cfcfcf;opacity:0.314;}.s{fill:#ccc;opacity:0.333;}.t{fill:#c9c9c9;opacity:0.353;}.u{fill:#c6c6c6;opacity:0.373;}.v{fill:#c3c3c3;opacity:0.392;}.w{fill:silver;opacity:0.412;}.x{fill:#bdbdbd;opacity:0.431;}.y{fill:#bababa;opacity:0.451;}.z{fill:#b7b7b7;opacity:0.471;}.aa{fill:#b4b4b4;opacity:0.49;}.ab{fill:#b1b1b1;opacity:0.51;}.ac{fill:#aeaeae;opacity:0.529;}.ad{fill:#ababab;opacity:0.549;}.ae{fill:#a8a8a8;opacity:0.569;}.af{fill:#a5a5a5;opacity:0.588;}.ag{fill:#a2a2a2;opacity:0.608;}.ah{fill:#9f9f9f;opacity:0.627;}.ai{fill:#9c9c9c;opacity:0.647;}.aj{fill:#999;opacity:0.667;}.ak{fill:#969696;opacity:0.686;}.al{fill:#939393;opacity:0.706;}.am{fill:#909090;opacity:0.725;}.an{fill:#8d8d8d;opacity:0.745;}.ao{fill:#8a8a8a;opacity:0.765;}.ap{fill:#878787;opacity:0.784;}.aq{fill:#848484;opacity:0.804;}.ar{fill:#818181;opacity:0.824;}.as{fill:#7e7e7e;opacity:0.843;}.at{fill:#7b7b7b;opacity:0.863;}.au{fill:#787878;opacity:0.882;}.av{fill:#757575;opacity:0.902;}.aw{fill:#727272;opacity:0.922;}.ax{fill:#6f6f6f;opacity:0.941;}.ay{fill:#6c6c6c;opacity:0.961;}.az{fill:#696969;opacity:0.98;}.ba{fill:#666;}.bb{fill:#e6e6e6;}.bc{opacity:0.46;}.bd{fill:#29abe2;}.be{fill:#ed1c24;opacity:0.39;}</style></defs><g transform="matrix(0.999, -0.035, 0.035, 0.999, -1075.329, -583.5)"><g transform="translate(1053.265 635.788)"><g class="a" transform="translate(0 14.806)"><path class="b" d="M1465.033,1258.414H1061.664c-4.62,0-8.4-3.342-8.4-7.426V669.255c0-4.084,3.779-7.426,8.4-7.426h439.764c4.619,0,8.4,3.342,8.4,7.426v548.317C1509.827,1240.7,1487.014,1259.572,1465.033,1258.414Z" transform="translate(-1053.265 -661.829)"/><path class="c" d="M1464.856,1258.28H1064.668c-4.607,0-8.377-3.341-8.377-7.423V670.941c0-4.082,3.77-7.422,8.377-7.422h435.87c4.607,0,8.376,3.34,8.376,7.422V1218.1C1508.913,1240.85,1486.484,1259.414,1464.856,1258.28Z" transform="translate(-1054.46 -662.496)"/><path class="d" d="M1464.679,1258.145H1067.671c-4.595,0-8.354-3.339-8.354-7.42v-578.1c0-4.081,3.759-7.42,8.354-7.42h431.975c4.6,0,8.354,3.339,8.354,7.42v545.991C1508,1241,1485.953,1259.257,1464.679,1258.145Z" transform="translate(-1055.655 -663.163)"/><path class="e" d="M1464.5,1258.01H1070.675c-4.582,0-8.332-3.337-8.332-7.416V674.314c0-4.079,3.75-7.416,8.332-7.416h428.08c4.583,0,8.332,3.337,8.332,7.416v544.829C1507.087,1241.147,1485.423,1259.1,1464.5,1258.01Z" transform="translate(-1056.849 -663.83)"/><path class="f" d="M1464.324,1257.875H1073.679c-4.57,0-8.309-3.336-8.309-7.413V676c0-4.078,3.739-7.413,8.309-7.413h424.186c4.57,0,8.309,3.336,8.309,7.413v543.666C1506.174,1241.3,1484.893,1258.943,1464.324,1257.875Z" transform="translate(-1058.044 -664.498)"/><path class="g" d="M1464.147,1257.74H1076.683c-4.558,0-8.288-3.334-8.288-7.41V677.688c0-4.075,3.73-7.409,8.288-7.409h420.29c4.558,0,8.288,3.334,8.288,7.409v542.5C1505.261,1241.444,1484.363,1258.785,1464.147,1257.74Z" transform="translate(-1059.239 -665.165)"/><path class="h" d="M1463.969,1257.605H1079.686c-4.546,0-8.265-3.333-8.265-7.407V679.374c0-4.074,3.719-7.407,8.265-7.407h416.4c4.545,0,8.265,3.333,8.265,7.407v541.34C1504.347,1241.592,1483.833,1258.627,1463.969,1257.605Z" transform="translate(-1060.434 -665.832)"/><path class="i" d="M1463.792,1257.471h-381.1c-4.533,0-8.243-3.331-8.243-7.4V681.061c0-4.072,3.71-7.4,8.243-7.4h412.5c4.534,0,8.243,3.332,8.243,7.4v540.177C1503.434,1241.741,1483.3,1258.47,1463.792,1257.471Z" transform="translate(-1061.629 -666.499)"/><path class="j" d="M1463.615,1257.336H1085.694c-4.521,0-8.22-3.33-8.22-7.4V682.747c0-4.07,3.7-7.4,8.22-7.4H1494.3c4.521,0,8.22,3.33,8.22,7.4v539.015C1502.521,1241.89,1482.774,1258.313,1463.615,1257.336Z" transform="translate(-1062.823 -667.167)"/><path class="k" d="M1463.437,1257.2H1088.7c-4.509,0-8.2-3.328-8.2-7.4V684.434c0-4.068,3.689-7.4,8.2-7.4h404.712c4.509,0,8.2,3.328,8.2,7.4v537.852C1501.607,1242.038,1482.243,1258.156,1463.437,1257.2Z" transform="translate(-1064.018 -667.834)"/><path class="l" d="M1463.26,1257.067H1091.7c-4.5,0-8.176-3.327-8.176-7.394V686.12c0-4.066,3.679-7.393,8.176-7.393h400.817c4.5,0,8.176,3.327,8.176,7.393V1222.81C1500.694,1242.187,1481.714,1258,1463.26,1257.067Z" transform="translate(-1065.213 -668.501)"/><path class="m" d="M1463.083,1256.932H1094.7c-4.485,0-8.154-3.326-8.154-7.39V687.807c0-4.065,3.669-7.391,8.154-7.391h396.923c4.484,0,8.153,3.326,8.153,7.391v535.526C1499.781,1242.334,1481.184,1257.841,1463.083,1256.932Z" transform="translate(-1066.408 -669.168)"/><path class="n" d="M1462.905,1256.8h-365.2c-4.472,0-8.132-3.324-8.132-7.387V689.493c0-4.063,3.659-7.387,8.132-7.387h393.028c4.472,0,8.132,3.324,8.132,7.387v534.364C1498.868,1242.483,1480.653,1257.683,1462.905,1256.8Z" transform="translate(-1067.603 -669.835)"/><path class="o" d="M1462.728,1256.663H1100.712c-4.46,0-8.109-3.323-8.109-7.384V691.18c0-4.061,3.649-7.384,8.109-7.384h389.133c4.46,0,8.109,3.323,8.109,7.384v533.2C1497.954,1242.632,1480.123,1257.526,1462.728,1256.663Z" transform="translate(-1068.797 -670.502)"/><path class="p" d="M1462.551,1256.528H1103.716c-4.447,0-8.087-3.322-8.087-7.381V692.867c0-4.059,3.639-7.381,8.087-7.381h385.239c4.448,0,8.087,3.321,8.087,7.381V1224.9C1497.041,1242.78,1479.594,1257.368,1462.551,1256.528Z" transform="translate(-1069.992 -671.17)"/><path class="q" d="M1462.373,1256.394H1106.719c-4.435,0-8.064-3.32-8.064-7.377V694.553c0-4.058,3.629-7.377,8.064-7.377h381.345c4.435,0,8.064,3.32,8.064,7.377v530.875C1496.128,1242.929,1479.063,1257.211,1462.373,1256.394Z" transform="translate(-1071.187 -671.837)"/><path class="r" d="M1462.2,1256.259H1109.724c-4.423,0-8.043-3.319-8.043-7.375V696.24c0-4.056,3.619-7.375,8.043-7.375h377.449c4.423,0,8.042,3.319,8.042,7.375v529.712C1495.215,1243.077,1478.534,1257.054,1462.2,1256.259Z" transform="translate(-1072.382 -672.504)"/><path class="s" d="M1462.019,1256.124H1112.727c-4.411,0-8.02-3.317-8.02-7.371V697.926c0-4.055,3.609-7.372,8.02-7.372h373.554c4.411,0,8.02,3.317,8.02,7.372v528.549C1494.3,1243.226,1478,1256.9,1462.019,1256.124Z" transform="translate(-1073.576 -673.171)"/><path class="t" d="M1461.841,1255.99h-346.11c-4.4,0-8-3.316-8-7.368V699.613c0-4.052,3.6-7.368,8-7.368h369.66c4.4,0,8,3.316,8,7.368V1227C1493.388,1243.375,1477.474,1256.739,1461.841,1255.99Z" transform="translate(-1074.771 -673.838)"/><path class="u" d="M1461.664,1255.855h-342.93c-4.386,0-7.975-3.314-7.975-7.364V701.3c0-4.051,3.589-7.365,7.975-7.365H1484.5c4.386,0,7.975,3.314,7.975,7.365v526.223C1492.475,1243.523,1476.944,1256.582,1461.664,1255.855Z" transform="translate(-1075.966 -674.506)"/><path class="v" d="M1461.487,1255.72H1121.738c-4.374,0-7.952-3.313-7.952-7.362V702.986c0-4.049,3.578-7.362,7.952-7.362h361.871c4.374,0,7.953,3.313,7.953,7.362v525.061C1491.563,1243.671,1476.414,1256.424,1461.487,1255.72Z" transform="translate(-1077.161 -675.173)"/><path class="w" d="M1461.309,1255.585H1124.742c-4.362,0-7.931-3.311-7.931-7.358V704.673c0-4.047,3.569-7.359,7.931-7.359h357.976c4.362,0,7.931,3.311,7.931,7.359v523.9C1490.649,1243.82,1475.883,1256.266,1461.309,1255.585Z" transform="translate(-1078.355 -675.84)"/><path class="x" d="M1461.132,1255.451H1127.746c-4.35,0-7.909-3.31-7.909-7.355V706.359c0-4.046,3.559-7.355,7.909-7.355h354.081c4.349,0,7.908,3.31,7.908,7.355v522.735C1489.736,1243.969,1475.353,1256.109,1461.132,1255.451Z" transform="translate(-1079.55 -676.507)"/><path class="y" d="M1460.955,1255.316h-330.2a7.655,7.655,0,0,1-7.886-7.352V708.045a7.655,7.655,0,0,1,7.886-7.351h350.187a7.655,7.655,0,0,1,7.886,7.351v521.572C1488.822,1244.118,1474.824,1255.952,1460.955,1255.316Z" transform="translate(-1080.745 -677.174)"/><path class="z" d="M1460.778,1255.181H1133.754a7.641,7.641,0,0,1-7.863-7.348v-538.1a7.642,7.642,0,0,1,7.863-7.349h346.292a7.642,7.642,0,0,1,7.864,7.349v520.409C1487.909,1244.266,1474.294,1255.794,1460.778,1255.181Z" transform="translate(-1081.94 -677.841)"/><path class="aa" d="M1460.6,1255.047H1136.757a7.628,7.628,0,0,1-7.841-7.345V711.418a7.628,7.628,0,0,1,7.841-7.345h342.4a7.628,7.628,0,0,1,7.842,7.345v519.247C1487,1244.414,1473.764,1255.636,1460.6,1255.047Z" transform="translate(-1083.135 -678.509)"/><path class="ab" d="M1460.423,1254.912H1139.761a7.614,7.614,0,0,1-7.819-7.342V713.105a7.614,7.614,0,0,1,7.819-7.342h338.5a7.614,7.614,0,0,1,7.819,7.342v518.084C1486.083,1244.563,1473.234,1255.48,1460.423,1254.912Z" transform="translate(-1084.33 -679.176)"/><path class="ac" d="M1460.246,1254.777H1142.765a7.6,7.6,0,0,1-7.8-7.339V714.792a7.6,7.6,0,0,1,7.8-7.339h334.608a7.6,7.6,0,0,1,7.8,7.339v516.921C1485.17,1244.712,1472.7,1255.322,1460.246,1254.777Z" transform="translate(-1085.525 -679.843)"/><path class="ad" d="M1460.069,1254.643h-314.3a7.587,7.587,0,0,1-7.774-7.336V716.479a7.587,7.587,0,0,1,7.774-7.336h330.713a7.587,7.587,0,0,1,7.775,7.336v515.758C1484.256,1244.861,1472.174,1255.165,1460.069,1254.643Z" transform="translate(-1086.719 -680.51)"/><path class="ae" d="M1459.891,1254.508H1148.772a7.573,7.573,0,0,1-7.752-7.333V718.165a7.573,7.573,0,0,1,7.752-7.333H1475.59a7.574,7.574,0,0,1,7.753,7.333v514.6C1483.343,1245.009,1471.644,1255.007,1459.891,1254.508Z" transform="translate(-1087.914 -681.177)"/><path class="af" d="M1459.714,1254.373H1151.776a7.56,7.56,0,0,1-7.73-7.33V719.852a7.56,7.56,0,0,1,7.73-7.33H1474.7a7.56,7.56,0,0,1,7.73,7.33v513.433C1482.43,1245.157,1471.114,1254.85,1459.714,1254.373Z" transform="translate(-1089.109 -681.845)"/><path class="ag" d="M1459.537,1254.239H1154.78a7.546,7.546,0,0,1-7.708-7.326V721.538a7.546,7.546,0,0,1,7.708-7.326h319.029a7.546,7.546,0,0,1,7.708,7.326v512.27C1481.517,1245.306,1470.584,1254.693,1459.537,1254.239Z" transform="translate(-1090.304 -682.512)"/><path class="ah" d="M1459.359,1254.1H1157.784a7.533,7.533,0,0,1-7.686-7.323V723.225a7.533,7.533,0,0,1,7.686-7.323h315.135a7.533,7.533,0,0,1,7.685,7.323v511.107C1480.6,1245.455,1470.054,1254.535,1459.359,1254.1Z" transform="translate(-1091.499 -683.179)"/><path class="ai" d="M1459.182,1253.97H1160.787a7.519,7.519,0,0,1-7.663-7.32V724.911a7.519,7.519,0,0,1,7.663-7.319h311.24a7.519,7.519,0,0,1,7.663,7.319v509.944C1479.69,1245.6,1469.524,1254.378,1459.182,1253.97Z" transform="translate(-1092.693 -683.846)"/><path class="aj" d="M1459,1253.835H1163.791a7.506,7.506,0,0,1-7.641-7.317V726.6a7.506,7.506,0,0,1,7.641-7.317h307.345a7.506,7.506,0,0,1,7.641,7.317v508.781C1478.777,1245.752,1468.994,1254.22,1459,1253.835Z" transform="translate(-1093.888 -684.513)"/><path class="ak" d="M1458.827,1253.7H1166.794a7.493,7.493,0,0,1-7.618-7.314v-518.1a7.492,7.492,0,0,1,7.618-7.313h303.451a7.492,7.492,0,0,1,7.618,7.313V1235.9C1477.863,1245.9,1468.464,1254.063,1458.827,1253.7Z" transform="translate(-1095.083 -685.181)"/><path class="al" d="M1458.65,1253.566H1169.8a7.479,7.479,0,0,1-7.6-7.31V729.971a7.479,7.479,0,0,1,7.6-7.31h299.557a7.479,7.479,0,0,1,7.6,7.31v506.456C1476.95,1246.049,1467.934,1253.906,1458.65,1253.566Z" transform="translate(-1096.278 -685.848)"/><path class="am" d="M1458.473,1253.431H1172.8a7.466,7.466,0,0,1-7.574-7.307V731.658a7.466,7.466,0,0,1,7.574-7.307h295.661a7.466,7.466,0,0,1,7.574,7.307v505.293C1476.038,1246.2,1467.4,1253.749,1458.473,1253.431Z" transform="translate(-1097.472 -686.515)"/><path class="an" d="M1458.295,1253.3H1175.806a7.453,7.453,0,0,1-7.552-7.3V733.344a7.453,7.453,0,0,1,7.552-7.3h291.766a7.453,7.453,0,0,1,7.552,7.3v504.13C1475.124,1246.346,1466.874,1253.591,1458.295,1253.3Z" transform="translate(-1098.667 -687.182)"/><path class="ao" d="M1458.118,1253.161H1178.809a7.439,7.439,0,0,1-7.529-7.3V735.031a7.44,7.44,0,0,1,7.529-7.3h287.872a7.44,7.44,0,0,1,7.53,7.3V1238C1474.211,1246.495,1466.344,1253.433,1458.118,1253.161Z" transform="translate(-1099.862 -687.849)"/><path class="ap" d="M1457.941,1253.026H1181.813a7.426,7.426,0,0,1-7.507-7.3V736.717a7.426,7.426,0,0,1,7.507-7.3H1465.79a7.426,7.426,0,0,1,7.507,7.3v501.805C1473.3,1246.643,1465.814,1253.276,1457.941,1253.026Z" transform="translate(-1101.057 -688.517)"/><path class="aq" d="M1457.763,1252.892H1184.817a7.413,7.413,0,0,1-7.484-7.294V738.4a7.413,7.413,0,0,1,7.484-7.294H1464.9a7.413,7.413,0,0,1,7.484,7.294v500.642C1472.384,1246.792,1465.284,1253.119,1457.763,1252.892Z" transform="translate(-1102.252 -689.184)"/><path class="ar" d="M1457.586,1252.757H1187.821a7.4,7.4,0,0,1-7.463-7.291V740.09a7.4,7.4,0,0,1,7.463-7.29h276.188a7.4,7.4,0,0,1,7.463,7.29V1239.57C1471.471,1246.94,1464.754,1252.962,1457.586,1252.757Z" transform="translate(-1103.446 -689.851)"/><path class="as" d="M1457.409,1252.622H1190.824a7.387,7.387,0,0,1-7.44-7.287V741.777a7.387,7.387,0,0,1,7.44-7.288h272.293a7.387,7.387,0,0,1,7.44,7.288v498.316C1470.558,1247.089,1464.224,1252.8,1457.409,1252.622Z" transform="translate(-1104.641 -690.518)"/><path class="at" d="M1457.231,1252.488h-263.4a7.374,7.374,0,0,1-7.418-7.284V743.463a7.374,7.374,0,0,1,7.418-7.284h268.4a7.374,7.374,0,0,1,7.418,7.284v497.154C1469.645,1247.237,1463.694,1252.647,1457.231,1252.488Z" transform="translate(-1105.836 -691.185)"/><path class="au" d="M1457.054,1252.353H1196.832a7.361,7.361,0,0,1-7.4-7.281V745.15a7.361,7.361,0,0,1,7.4-7.281h264.5a7.36,7.36,0,0,1,7.4,7.281v495.991A11.544,11.544,0,0,1,1457.054,1252.353Z" transform="translate(-1107.031 -691.853)"/><path class="av" d="M1456.877,1252.219H1199.835a7.348,7.348,0,0,1-7.373-7.278v-498.1a7.348,7.348,0,0,1,7.373-7.278h260.609a7.348,7.348,0,0,1,7.373,7.278v494.828A10.834,10.834,0,0,1,1456.877,1252.219Z" transform="translate(-1108.226 -692.52)"/><path class="aw" d="M1456.7,1252.084H1202.84a7.335,7.335,0,0,1-7.351-7.275V748.523a7.335,7.335,0,0,1,7.351-7.275h256.714a7.335,7.335,0,0,1,7.351,7.275v493.665A10.124,10.124,0,0,1,1456.7,1252.084Z" transform="translate(-1109.42 -693.187)"/><path class="ax" d="M1456.522,1251.949H1205.843a7.322,7.322,0,0,1-7.329-7.272V750.21a7.322,7.322,0,0,1,7.329-7.272h252.82a7.321,7.321,0,0,1,7.328,7.272v492.5A9.414,9.414,0,0,1,1456.522,1251.949Z" transform="translate(-1110.615 -693.854)"/><path class="ay" d="M1456.345,1251.815h-247.5a7.309,7.309,0,0,1-7.307-7.269V751.9a7.309,7.309,0,0,1,7.307-7.269h248.925a7.309,7.309,0,0,1,7.307,7.269v491.339A8.7,8.7,0,0,1,1456.345,1251.815Z" transform="translate(-1111.81 -694.521)"/><path class="az" d="M1456.167,1251.68H1211.85a7.3,7.3,0,0,1-7.284-7.266V753.583a7.3,7.3,0,0,1,7.284-7.265h245.031a7.3,7.3,0,0,1,7.284,7.265V1243.76A7.993,7.993,0,0,1,1456.167,1251.68Z" transform="translate(-1113.005 -695.189)"/><rect class="ba" width="255.66" height="503.537" rx="12" transform="translate(93.393 52.152)"/></g><g transform="translate(1.778)"><path class="bb" d="M1057.243,637.362v27.17c.7-1.322,1.383-2.64,1.93-3.95a1.354,1.354,0,0,1,2.1-.486c.981,1.089,2.028,2.065,2.931,3.154a2.747,2.747,0,0,1,.322-.419,1.381,1.381,0,0,1,1.976.221c.957,1.659,2.286,3.031,3.278,4.634a.523.523,0,0,0,.071-.028c.2-5.888,5.72-10.615,12.545-10.615,6.947,0,12.578,4.9,12.578,10.936s-5.632,10.933-12.578,10.933a14.354,14.354,0,0,1-2.427-.212,1.192,1.192,0,0,1-.822-.108c-.079-.05-.127-.1-.2-.146a12.422,12.422,0,0,1-7.443-5.084c-.71.335-1.421.672-2.147.994a92.864,92.864,0,0,1-12.123,4.29v35.267a1.528,1.528,0,0,1,.89.309,37.352,37.352,0,0,1,7.2,7.386c.4-1.76.922-3.491,1.394-5.265a1.291,1.291,0,0,1,1.548-.761,9.932,9.932,0,0,0,1.578.33c0-.076-.027-.146-.027-.221a9.694,9.694,0,0,1,.16-1.381.925.925,0,0,1,.016-.959c.1-.179.212-.352.32-.528a10.908,10.908,0,0,1,4.4-5.731c.174-.17.323-.356.507-.521a1.208,1.208,0,0,1,.93-.316,13.905,13.905,0,0,1,6.247-1.5,14.159,14.159,0,0,1,4.585.775c1.8.151,3.669.536,4.517,1.759a15.052,15.052,0,0,1,1.242,2.192,9.959,9.959,0,0,1,2.234,6.208c0,6.038-5.632,10.936-12.578,10.936a14.336,14.336,0,0,1-2.665-.26c-.133.123-.288.224-.426.339a.971.971,0,0,1,.2,1.636,7.161,7.161,0,0,0-1.383,1.786,32.526,32.526,0,0,0,3.346,1.306c1.377.433,1.082,2.018-.331,2.149a23.449,23.449,0,0,0-4.485.939,16.233,16.233,0,0,0-.147,2.672c.165.179.314.353.488.537a1.03,1.03,0,0,1-.26,1.716,9.827,9.827,0,0,0,.58,2.046.984.984,0,0,1-.32,1.063l-1.117.969c1.234.5,2.386,1.14,3.59,1.73.987.326,1.969.669,2.928,1.051a1.031,1.031,0,0,1,0,1.891,13.941,13.941,0,0,0-2.486,1.258,7.33,7.33,0,0,0-.312,3.347,13.17,13.17,0,0,1,2.8-.335,12.786,12.786,0,0,1,11.35,6.3c.2-.007.4-.029.6-.033a1.2,1.2,0,0,1,1.259,1.094c.1,1.576.531,3.125-.044,4.664a1.123,1.123,0,0,1-.792.688c-.979,5.19-6.128,9.159-12.372,9.159-6.852,0-12.405-4.767-12.554-10.693a45.292,45.292,0,0,1-12.605,2.3v36.036c5.005.229,9.8,2.277,14.674,3.116a13.125,13.125,0,0,1,10.485-4.909c6.947,0,12.578,4.9,12.578,10.933s-5.632,10.935-12.578,10.935a13.157,13.157,0,0,1-10.412-4.8c-.448.514-.871,1-1.24,1.426-2.126,2.47-6.61,8.843-11,8.437a5.986,5.986,0,0,1-2.505-.813v21.7a4.3,4.3,0,0,1,1.106.273c2.254.9,3,2.908,5.228,2.91,3.031,0,5.447,1.219,7.849,2.407a12.9,12.9,0,0,1,10.976-5.692c6.947,0,12.578,4.9,12.578,10.933s-5.632,10.936-12.578,10.936c-5.285,0-9.791-2.842-11.651-6.853-4.227.117-8.9-.212-13.175,1.3a1.013,1.013,0,0,1-.333.037v31.751c.467.387.922.785,1.4,1.164a1.159,1.159,0,0,1,.317-.339,1.341,1.341,0,0,1,.656-.264c.035-.007.071-.009.109-.014a1.135,1.135,0,0,1,.222,0c.048,0,.1-.007.149,0,3.73.471,7.283,2.715,10.36,4.482a1.174,1.174,0,0,1,.4.372c.139.062.28.12.423.184A12.769,12.769,0,0,1,1082.4,895.6c6.947,0,12.578,4.893,12.578,10.931a9.723,9.723,0,0,1-1.491,5.063,1.733,1.733,0,0,1-.388.742c-.055.054-.117.1-.171.153a13.107,13.107,0,0,1-10.529,4.977,13.418,13.418,0,0,1-9.194-3.521,1.264,1.264,0,0,1-1.47-.886c-.277.311-.575.6-.83.934a1.391,1.391,0,0,1-1.974.221c-.637-.571-1.426-.957-.857-1.794a3.6,3.6,0,0,1-1.138,1.247c-.64.453-1.95.418-2.1-.483a5.434,5.434,0,0,0-.328-1.511c-1.221,1.069-2.7,1.909-3.859,3.087a1.353,1.353,0,0,1-2.1-.485,22.98,22.98,0,0,1-.787-2.281c-.162.094-.341.169-.515.255v36.351a64.311,64.311,0,0,1,14.658-.353,13.108,13.108,0,0,1,10.5-4.935c6.947,0,12.578,4.893,12.578,10.931s-5.632,10.936-12.578,10.936a14.757,14.757,0,0,1-2.156-.189,21.364,21.364,0,0,0,.225,6.109,1.077,1.077,0,0,1-.58,1.235c-1,.558-1.938,1.184-2.888,1.794,2.844,2.133-2.332,6.993-2.148,10.385.16,3.028,5.944,2.882,9.068,4.563a3.142,3.142,0,0,1,1.578,2.253c.005.022,0,.048.005.071,5.437,1.2,9.474,5.456,9.474,10.557,0,6.041-5.632,10.936-12.578,10.936a13.744,13.744,0,0,1-5.862-1.3,11.467,11.467,0,0,1-4.243,6.971c2.386.756,5.005,1.827,5.423,4a8.5,8.5,0,0,1-.407,2.913c-.412,2.555.434,5.02,1.448,7.4a13.582,13.582,0,0,1,1.114,5.4,12.67,12.67,0,0,1,2.744-.339,6.163,6.163,0,0,1,3.406,1.32c5.165,1.357,8.956,5.482,8.956,10.42,0,6.04-5.632,10.933-12.578,10.933-5.529,0-10.168-3.116-11.857-7.424a28.944,28.944,0,0,0-5.244-.692,27.569,27.569,0,0,1-6.819.358c-.412.062-.832.094-1.239.175v36.691c1.817.316,3.633.591,5.456.874a13.406,13.406,0,0,0,1.507-3.038,1.337,1.337,0,0,1,2.43,0,28.968,28.968,0,0,0,1.9,3.589c1.174,0,2.359-.031,3.517.05a13.159,13.159,0,0,1,10.352-4.737c6.947,0,12.578,4.893,12.578,10.931s-5.632,10.936-12.578,10.936c-5.965,0-10.935-3.62-12.229-8.461-1.746-.122-3.124-.17-3.273.391a13.225,13.225,0,0,0,.043,5.588c1.122,1.279,2.261,2.55,3.336,3.868a.99.99,0,0,1-.2,1.324c-.209.184-.421.365-.632.547a1.424,1.424,0,0,1-1.492.182c.437,4.635-.041,12.218-7.562,8.386a17.564,17.564,0,0,1-3.156-2.067v18.19c1.475.271,2.931.556,4.379.853,3.859.085,7.673.316,11.472.719a13.255,13.255,0,0,1,9.308-3.675c6.668,0,12.074,4.525,12.5,10.229a6.545,6.545,0,0,1,.387,3.62l.024.007c1.595.336.911,2.378-.664,2.107-.152-.026-.3-.05-.448-.078a1.511,1.511,0,0,1-.683.049,12.829,12.829,0,0,1-11.115,5.932,12.967,12.967,0,0,1-10.792-5.4,51.948,51.948,0,0,1-7.532.264q-1.37.367-2.739.73c-1.222.326-2.627.62-4.1.929v30.794c.719.087,1.437.183,2.148.292a4.418,4.418,0,0,0-.719-1.216c-.968-1.131,1.218-2.223,2.173-1.1a5.2,5.2,0,0,1,1.166,2.76c1.063.2,2.12.422,3.172.657a14.85,14.85,0,0,1,1.236-1.452,1.3,1.3,0,0,1,2.148.774c0,.48.019.99.046,1.505q1.777.46,3.555.955a13.147,13.147,0,0,1,10.236-4.648c6.947,0,12.578,4.9,12.578,10.933s-5.632,10.933-12.578,10.933c-6.047,0-11.082-3.7-12.3-8.645-.542.052-1.084.113-1.627.174a1.087,1.087,0,0,1-1.172.816c-1.432-.026-2.864-.118-4.295-.22-1.112.1-2.207.194-3.254.22a1.1,1.1,0,0,1-1.122-.632c-.464-.05-.928-.085-1.394-.141v19.363s233.988,4.818,329.571,3.281c67.926-1.094,101.89-24.6,101.89-24.6s-.629-13.123-.629-53.58c0-26.241-.626-502.416-.626-502.416Z" transform="translate(-1056.614 -637.362)"/><g class="bc" transform="translate(0 20.5)"><path class="bd" d="M1486.409,671.786H1056.2v-.549h430.205v.549Z" transform="translate(-1056.204 -671.237)"/><g transform="translate(0 25.515)"><path class="bd" d="M1486.409,713.947H1056.2V713.4h430.205v.547Z" transform="translate(-1056.204 -713.4)"/></g><g transform="translate(0 51.025)"><path class="bd" d="M1072.635,755.554H1056.2v.549h16.016C1072.359,755.922,1072.491,755.733,1072.635,755.554Z" transform="translate(-1056.204 -755.554)"/><path class="bd" d="M1115.436,755.554c.092.182.176.366.26.549h394.1v-.549Z" transform="translate(-1079.591 -755.554)"/></g><g transform="translate(19.999 76.541)"><path class="bd" d="M1089.724,797.717c-.141.037-.28.085-.423.127-.022.139-.033.278-.049.419h410.206v-.546Z" transform="translate(-1089.252 -797.717)"/></g><g transform="translate(39.004 102.051)"><path class="bd" d="M1120.656,839.872c.013.183.038.365.054.546h391.148v-.546Z" transform="translate(-1120.656 -839.872)"/></g><g transform="translate(0 127.566)"><path class="bd" d="M1486.409,882.581H1056.2v-.547h430.205v.547Z" transform="translate(-1056.204 -882.034)"/></g><g transform="translate(19.734 153.077)"><path class="bd" d="M1089.128,924.189c-.1.183-.206.367-.315.546h410.471v-.546Z" transform="translate(-1088.813 -924.189)"/></g><g transform="translate(0 178.591)"><path class="bd" d="M1486.409,966.9H1056.2v-.547h430.205v.547Z" transform="translate(-1056.204 -966.351)"/></g><g transform="translate(36.2 204.102)"><path class="bd" d="M1116.123,1008.506c-.038.183-.057.367-.1.549h394.005v-.549Z" transform="translate(-1116.023 -1008.506)"/></g><g transform="translate(0 229.614)"><path class="bd" d="M1486.409,1051.213H1056.2v-.549h430.205v.549Z" transform="translate(-1056.204 -1050.664)"/></g><g transform="translate(35.154 255.127)"><path class="bd" d="M1114.9,1092.823c-.206.184-.4.372-.61.546h395.051v-.546Z" transform="translate(-1114.294 -1092.823)"/></g><g transform="translate(0 280.642)"><path class="bd" d="M1486.409,1135.532H1056.2v-.547h430.205v.547Z" transform="translate(-1056.204 -1134.985)"/></g><g transform="translate(23.666 306.153)"><path class="bd" d="M1095.353,1177.14c-.01.184-.027.363-.043.546h406.54v-.546Z" transform="translate(-1095.31 -1177.14)"/></g><g transform="translate(27.944 331.665)"><path class="bd" d="M1102.38,1219.3a2.428,2.428,0,0,1,.444.55h401.817v-.55Z" transform="translate(-1102.38 -1219.298)"/></g><g transform="translate(18.367 357.178)"><path class="bd" d="M1086.87,1261.457c-.1.184-.2.367-.315.546h411.838v-.546Z" transform="translate(-1086.555 -1261.457)"/></g><g transform="translate(30.78 382.691)"><path class="bd" d="M1107.067,1303.616c0,.011.011.019.011.028.233.153.453.353.683.521h398.731v-.549Z" transform="translate(-1107.067 -1303.616)"/></g><g transform="translate(0 408.203)"><path class="bd" d="M1486.409,1346.321H1056.2v-.547h430.205v.547Z" transform="translate(-1056.204 -1345.774)"/></g><g transform="translate(34.001 433.716)"><path class="bd" d="M1112.389,1387.933c.144.162.261.346.417.5.038.014.087.028.125.045h395.662v-.549Z" transform="translate(-1112.389 -1387.933)"/></g><g transform="translate(11.079 459.229)"><path class="bd" d="M1074.63,1430.091c-.035.184-.07.37-.119.547h419.126v-.547Z" transform="translate(-1074.511 -1430.091)"/></g><g transform="translate(37.293 484.742)"><path class="bd" d="M1117.829,1472.25c.13.181.233.365.347.546h392.566v-.546Z" transform="translate(-1117.829 -1472.25)"/></g><g transform="translate(0 510.254)"><path class="bd" d="M1486.409,1514.955H1056.2v-.547h430.205v.547Z" transform="translate(-1056.204 -1514.408)"/></g><g transform="translate(26.122 535.767)"><path class="bd" d="M1099.369,1556.567c.174.179.331.37.51.549h403.574v-.549Z" transform="translate(-1099.369 -1556.567)"/></g></g></g></g><path class="be" d="M1179.22,1212.589h-1.388V633.374h1.388v579.215Z" transform="translate(-49.184)"/></g></svg>