<svg xmlns="http://www.w3.org/2000/svg" xmlns:xlink="http://www.w3.org/1999/xlink" width="244" height="71" viewBox="0 0 244 71">
  <defs>
    <style>
      .cls-1 {
        clip-path: url(#clip-reserveren);
      }

      .cls-2 {
        fill: #7ed956;
      }

      .cls-3, .cls-4, .cls-5 {
        fill: #fef8e7;
      }

      .cls-3 {
        font-size: 23px;
      }

      .cls-3, .cls-5 {
        font-family: AlphaEcho, Alpha Echo;
      }

      .cls-5 {
        font-size: 16px;
      }

      .cls-6 {
        filter: url(#Path_14569);
      }
    </style>
    <filter id="Path_14569" x="-3" y="-19" width="246.352" height="87.865" filterUnits="userSpaceOnUse">
      <feOffset dx="5" dy="5" input="SourceAlpha"/>
      <feGaussianBlur result="blur"/>
      <feFlood flood-opacity="0.161"/>
      <feComposite operator="in" in2="blur"/>
      <feComposite in="SourceGraphic"/>
    </filter>
    <clipPath id="clip-reserveren">
      <rect width="244" height="71"/>
    </clipPath>
  </defs>
  <g id="reserveren" class="cls-1">
    <g id="Group_3823" data-name="Group 3823" transform="matrix(-0.997, -0.082, 0.082, -0.997, 233.134, 63.865)">
      <g class="cls-6" transform="matrix(-1, 0.08, -0.08, -1, 237.58, 44.54)">
        <path id="Path_14569-2" data-name="Path 14569" class="cls-2" d="M9.621,0H233.3l3.634,44.172L0,63.658Z" transform="matrix(-1, -0.08, 0.08, -1, 233.13, 63.86)"/>
      </g>
    </g>
    <text id="reserveren-2" data-name="reserveren" class="cls-3" transform="translate(18.787 26.611)"><tspan x="0" y="0">reserveren</tspan></text>
    <g id="Group_4045" data-name="Group 4045" transform="translate(-19120.643 2575.666)">
      <path id="Path_14794" data-name="Path 14794" class="cls-4" d="M951.064-761.1c-1.657.026-3.313.035-4.97.043q-6.86.036-13.718.03-6.6.005-13.2.009c-4.645.008-9.356.78-13.97.329a252.355,252.355,0,0,0,1.069-26.885,79.687,79.687,0,0,0,10.283-.353c4.307-.284,8.626-.323,12.941-.284,7.958.072,15.916.264,23.871.412-.14,8.9-.359,17.792-1.148,26.663C951.831-761.134,951.445-761.106,951.064-761.1ZM914.7-793.607c.133,1.553,2.575,1.568,2.441,0q-.083-.967-.136-1.936c4.54.041,9.08.058,13.616-.026,3.915-.073,7.874-.151,11.772-.541.467-.046.934-.084,1.4-.117-.016.762-.053,1.524-.116,2.288-.128,1.566,2.312,1.557,2.44,0q.1-1.209.118-2.414c2.419-.086,4.83-.088,7.258-.206q-.046,3.159-.092,6.319c-7.968-.149-15.937-.341-23.906-.413-4.155-.038-8.314,0-12.462.255a85.9,85.9,0,0,1-10.76.382q0-2.814.011-5.628c2.759.018,5.519.049,8.28.077C914.6-794.912,914.643-794.259,914.7-793.607Zm38.285,32.43C953.163-761.269,953.15-761.223,952.983-761.176Zm2.972-36.671a1.232,1.232,0,0,0-1.223-1.22c-2.862.194-5.693.175-8.529.277q-.072-1.553-.272-3.106c-.2-1.536-2.642-1.556-2.441,0q.208,1.617.276,3.232c-.458.032-.916.068-1.374.114-3.9.387-7.857.47-11.772.541-4.567.082-9.139.064-13.711.024q-.043-1.638-.045-3.279a1.221,1.221,0,0,0-2.44,0q0,1.63.044,3.256c-3.134-.032-6.268-.068-9.4-.083a1.238,1.238,0,0,0-1.22,1.22c-.077,12.423.236,24.876-1.2,37.241a1.214,1.214,0,0,0,.9,1.177c5.083.709,10.149-.114,15.254-.123q7.051-.012,14.1-.01c4.8,0,9.6-.006,14.4-.037,1.53-.01,3.064-.015,4.593-.05a4.333,4.333,0,0,0,2.056-.237,1.169,1.169,0,0,0,.508-.679,1.251,1.251,0,0,0,.1-.375C955.745-772.565,955.745-785.219,955.955-797.847Z" transform="translate(18387 -1767)"/>
      <path id="Path_14795" data-name="Path 14795" class="cls-4" d="M963.055-755.483c1.566-.051,1.573-2.493,0-2.44l-4.883.16c-1.567.052-1.574,2.493,0,2.441Z" transform="translate(18356.471 -1792.351)"/>
      <path id="Path_14796" data-name="Path 14796" class="cls-4" d="M991.936-758.32h-3.417a1.221,1.221,0,0,0,0,2.441h3.417A1.221,1.221,0,0,0,991.936-758.32Z" transform="translate(18339.424 -1792.128)"/>
      <path id="Path_14797" data-name="Path 14797" class="cls-4" d="M964.568-741.4l-5,.086a1.221,1.221,0,0,0,0,2.441l5-.087A1.221,1.221,0,0,0,964.568-741.4Z" transform="translate(18355.688 -1801.634)"/>
      <path id="Path_14798" data-name="Path 14798" class="cls-4" d="M988.75-740.989a20.6,20.6,0,0,1,3.048-.143,1.221,1.221,0,0,0,0-2.44,20.663,20.663,0,0,0-3.048.142,1.259,1.259,0,0,0-1.22,1.22A1.228,1.228,0,0,0,988.75-740.989Z" transform="translate(18339.318 -1800.408)"/>
      <path id="Path_14799" data-name="Path 14799" class="cls-4" d="M932.354-724.082q-1.712-.062-3.421.037c-1.561.092-1.571,2.533,0,2.441q1.711-.1,3.421-.037C933.924-721.584,933.922-724.024,932.354-724.082Z" transform="translate(18372.893 -1811.346)"/>
      <path id="Path_14800" data-name="Path 14800" class="cls-4" d="M963.307-726.763l-1.934.021-.967.01c-.058,0-.382.006-.552.031a1.248,1.248,0,0,0-1.915,1.307c.273,1.044,1.235,1.115,2.145,1.106l3.223-.035A1.221,1.221,0,0,0,963.307-726.763Z" transform="translate(18355.965 -1809.774)"/>
      <path id="Path_14801" data-name="Path 14801" class="cls-4" d="M991.911-727.13l-3.179.3a1.253,1.253,0,0,0-1.22,1.22,1.228,1.228,0,0,0,1.22,1.22l3.179-.3a1.253,1.253,0,0,0,1.219-1.22A1.228,1.228,0,0,0,991.911-727.13Z" transform="translate(18339.328 -1809.646)"/>
      <path id="Path_14802" data-name="Path 14802" class="cls-4" d="M933.139-747.081a9.966,9.966,0,0,0-1.85,1.2,6.872,6.872,0,0,1-.815-1.018c-.832-1.328-2.944-.1-2.108,1.232a9.1,9.1,0,0,0,1.08,1.336,13.839,13.839,0,0,1-1.542,1.151c-1.33.83-.106,2.942,1.232,2.107a15.252,15.252,0,0,0,1.807-1.373,4.277,4.277,0,0,0,1.612,1.689c1.4.712,2.633-1.393,1.232-2.108a2.75,2.75,0,0,1-1-1.115,9.415,9.415,0,0,1,1.582-1C935.784-745.657,934.548-747.762,933.139-747.081Z" transform="translate(18373.133 -1798.224)"/>
    </g>
    <text id="Klik_hier" data-name="Klik hier" class="cls-5" transform="translate(86.787 41.611)"><tspan x="0" y="0">Klik hier</tspan></text>
  </g>
</svg>
